<!-- /public/assets/defaults/cover-r.svg -->
<svg width="1200" height="400" viewBox="0 0 1200 400" xmlns="http://www.w3.org/2000/svg">
  <defs>
    <linearGradient id="cg" x1="0" y1="0" x2="1" y2="1">
      <stop offset="0%" stop-color="#0f172a"/>
      <stop offset="100%" stop-color="#111827"/>
    </linearGradient>
    <linearGradient id="cl" x1="0" y1="0" x2="1" y2="1">
      <stop offset="0%" stop-color="#6D5EF6"/>
      <stop offset="100%" stop-color="#1EC9D4"/>
    </linearGradient>
  </defs>
  <rect width="1200" height="400" fill="url(#cg)"/>
  <circle cx="1050" cy="60" r="220" fill="url(#cl)" opacity="0.08"/>
  <g transform="translate(120,60)">
    <circle cx="80" cy="80" r="70" fill="none" stroke="url(#cl)" stroke-width="10"/>
    <path d="M35 32h42c26 0 40 12 40 30c0 14-9 23-21 26l20 30h-26l-18-26h-16v26H35V32zm44 40c10 0 15-4 15-10s-5-10-15-10H59v20h20z"
          fill="url(#cl)"/>
  </g>
  <text x="230" y="120" fill="#e5e7eb" font-family="Inter, ui-sans-serif, system-ui" font-size="48" font-weight="700">
    Rateverse
  </text>
  <text x="230" y="170" fill="#9ca3af" font-family="Inter, ui-sans-serif, system-ui" font-size="18">
    Discover, try, write a review
  </text>
</svg>
